<svg version="1.0" xmlns="http://www.w3.org/2000/svg" width="1000px" height="1000px" viewBox="0 0 1000 1000" preserveAspectRatio="xMidYMid meet">
 <g fill="#fefefe">
  
  <path d="M466.4 616 c-5.2 -7.9 -6.9 -21.7 -4.1 -31.5 1.9 -6.2 30 -63.1 35.4 -71.6 4.1 -6.5 6.9 -9.2 12.8 -12 4.2 -2.1 6.2 -2.2 24.8 -2.6 19 -0.4 20.3 -0.3 21 1.4 0.5 1.1 0.8 6.9 0.7 13.1 0 16.8 -1.2 18.8 -28.6 49.4 -29.4 32.7 -48.1 53 -50.4 54.5 -3.6 2.4 -9.9 2.1 -11.6 -0.6z" data-index="1" style="opacity: 1; visibility: hidden; fill: rgb(121, 40, 202);"></path>
  
 </g>
 <g fill="#de5c2d">
  <path d="M139 858.9 c-1.3 -0.9 -6.5 -7.3 -11.9 -14.5 -46.1 -61.4 -76.1 -134.9 -87.4 -213.7 -5.3 -36.1 -6.1 -60.5 -3.4 -98 6.7 -96.3 43.6 -187.9 105.6 -263.2 12.1 -14.6 41.2 -44.2 55.6 -56.3 75.8 -64.4 167.4 -102.7 261.1 -109.6 58.9 -4.3 106.3 -0.4 158.2 13.1 52.1 13.6 104.3 38.1 150.2 70.7 16.2 11.5 35.8 27.3 35.8 28.9 0 0.3 -5.4 0.5 -11.8 0.5 l-11.8 0 -12.4 -9.2 c-70.9 -52.5 -149 -82 -234.5 -88.6 -22.6 -1.8 -66.6 -0.2 -90.8 3.1 -33.4 4.6 -33.5 4.6 -55.2 10.5 -20.8 5.6 -39.4 11.3 -44.8 13.8 -2.2 1 -8 3.3 -13 5.3 -14 5.6 -35.2 15.9 -51.1 25.2 -35.9 20.7 -65.5 43.6 -94.7 72.9 -22.3 22.5 -38.8 42.6 -55.4 67.5 -41 61.6 -64.2 125.3 -73.2 202.1 -2.1 18 -2.4 70.7 -0.5 88.5 5.3 48.1 15.1 87.8 32.1 129.4 14.3 35.1 38.2 76.4 60.3 104.4 3.7 4.7 6.4 9.2 6.4 10.4 0 5.6 -8.9 10 -13.4 6.7z" data-index="3" style="opacity: 1; visibility: hidden; fill: rgb(121, 40, 202);"></path>
  
  <path d="M450.2 832.4 c-22.6 -2.7 -42.5 -7.2 -61.8 -14.1 -13.3 -4.8 -13.2 -4.3 -1.7 -12 19.3 -13 32.7 -33 35.4 -53 0.6 -4.5 1.5 -8.2 2 -8.2 0.4 0 10.8 5.1 23.2 11.3 18.7 9.4 23.4 12.2 28.5 17 11.4 10.6 14.7 20 14.8 41 0 7.8 -0.3 15.3 -0.8 16.9 l-0.7 2.6 -14 -0.1 c-7.6 -0.1 -18.9 -0.7 -25.1 -1.5z" data-index="5"></path>
  <path d="M503.2 826.6 c1.3 -11.7 0.2 -26.8 -2.7 -36.9 l-2.5 -8.6 4.1 -5.6 c6.2 -8.2 28.4 -29.7 40.4 -39.2 30.5 -23.8 63.5 -40.9 95 -48.9 6.2 -1.6 11.5 -2.6 12 -2.3 1.4 1 1.1 6.7 -1.2 17.4 -2.3 11.8 -5.5 21.4 -10.4 32 -3.8 8.4 -3.4 8.1 -13.4 9.2 -8.7 0.9 -34.9 7.5 -37.1 9.5 -0.6 0.4 -1.9 0.8 -3 0.8 -1.2 0 -2.4 0.4 -2.9 0.9 -0.6 0.5 -3.6 1.9 -6.7 2.9 -3.1 1.1 -6.4 2.6 -7.4 3.5 -0.9 0.8 -2.1 1.5 -2.7 1.5 -0.7 0 -2.9 1.1 -5.1 2.4 -2.1 1.4 -4.1 2.4 -4.4 2.4 -2.3 0 -26.3 17.2 -31.3 22.5 -2.5 2.6 -0.5 1.9 16.1 -6.3 29.6 -14.3 51.2 -22.1 73.9 -26.7 16.7 -3.3 46.5 -1.8 55.3 2.8 1.7 0.9 1.7 1 0 3.8 -3.7 6.4 -30.7 29.9 -42.4 36.9 -11.5 6.9 -32.2 16.2 -48.9 22 -16.3 5.7 -40.2 9.9 -61.9 10.9 l-13.8 0.7 1 -7.7z" data-index="6" style="opacity: 1;"></path>
  <path d="M347 799.4 c-16.3 -8.6 -33.8 -21.6 -46.6 -34.7 l-5.9 -5.9 2.7 -1.1 c1.5 -0.5 4.1 -1 5.8 -1 5.2 0 22.7 -4.6 31.7 -8.4 19.7 -8.1 38.7 -23 46.3 -36.5 1.8 -3 2.8 -3.9 5 -3.9 1.5 0 2.6 0.4 2.6 0.8 0 0.5 4.6 6 10.3 12.2 11.4 12.8 11.7 13.7 11 26.4 -0.8 13.5 -6.3 25.9 -16.2 36.9 -9.1 10.2 -26 20.4 -33.5 20.4 -2.1 0 -7 -2.1 -13.3 -5.3z" data-index="7" style="opacity: 1;"></path>
  <path d="M274.9 738.1 c-7.7 -8 -20.5 -27.3 -27.2 -41.1 -5.8 -11.8 -12.6 -30.6 -11.7 -32 0.8 -1.4 2.5 -1.1 12 2.1 17.5 5.7 28.7 7.3 50.9 7.3 17.5 0 21.1 -0.3 28.5 -2.1 11.9 -3 22.9 -7.5 30 -12 3.3 -2.1 6.6 -3.9 7.3 -3.9 0.9 0 2.1 2.5 3.1 6.6 1 3.6 3.4 11.1 5.6 16.8 3.5 9.6 3.7 10.4 2.5 14.5 -2.7 9.9 -14.7 24 -27.7 32.6 -7.4 4.9 -25 13.5 -27.7 13.5 -0.9 0 -2.1 0.4 -2.5 0.9 -1.6 1.5 -15.3 3 -26.7 3 l-10.4 0 -6 -6.1z" data-index="8" style="opacity: 1;"></path>
  <path d="M286.1 661.4 c-8.4 -0.8 -22.1 -3.4 -30 -5.8 -9.7 -2.7 -23.5 -9 -25.5 -11.4 -2.1 -2.4 -5.9 -23 -7.1 -38.2 -1.1 -13.8 -0.7 -28.9 1.2 -42.6 1.4 -10.5 1.8 -11.7 3.4 -11.7 0.9 0 5.3 3.4 9.8 7.7 35.1 33.2 85.8 53.1 118.5 46.6 4.5 -0.9 8.3 -1.5 8.5 -1.3 0.2 0.2 -0.1 8.2 -0.8 17.9 l-1.1 17.5 -4 3.9 c-10.8 10.6 -35.4 18.3 -57.7 18 -6.4 -0.1 -13.3 -0.4 -15.1 -0.6z" data-index="9" style="opacity: 1;"></path>
  <path d="M448.2 644.9 c-7.6 -2.1 -14.4 -6.8 -45.7 -32.4 -21.9 -17.9 -28.2 -22.7 -30.5 -22.7 -1.6 0 -3 0.4 -3.3 0.9 -0.4 0.5 -4.8 1.7 -10 2.6 -33.7 6.1 -80.8 -12.4 -112.2 -43.9 -6.6 -6.6 -11.6 -12.6 -13 -15.4 l-2.2 -4.7 2.1 -7.4 c4.5 -16.6 14.6 -39.6 24.5 -55.8 6.4 -10.5 15.5 -22.8 17 -22.8 0.8 0 2 2.7 2.9 7.1 6.7 27.7 21.1 52.4 42.7 73.6 10.5 10.3 21.3 18 33.5 23.8 11.3 5.4 18.9 7.5 29.7 8.4 l7.6 0.6 1.7 5.1 c2.4 7.8 6.7 13.4 18 23.2 17.4 15.1 36.2 30.4 36.9 29.7 0.1 -0.1 -0.6 -3.3 -1.7 -7 -2.2 -8.3 -2.3 -17.9 -0.3 -25 2.5 -8.6 28.8 -64.6 36.2 -77.2 10.2 -17.3 21.8 -23.5 48.1 -25.7 11.2 -1 11.7 -1.4 7.5 -5.7 -18.6 -18.5 -38.1 -17.6 -61.3 2.6 -3.4 3 -10.2 7.3 -15.3 10 l-9.2 4.6 -8.5 -0.7 c-10.9 -0.9 -18.4 -2.8 -26.9 -7.1 -27.8 -14 -45.4 -38.2 -50.9 -70 -2.4 -14.6 -1.5 -27.1 3.1 -40.1 4.3 -11.7 9.3 -18.4 18.8 -24.9 6.9 -4.7 81.3 -43.4 103 -53.5 9.2 -4.2 24.3 -10.8 33.7 -14.6 21.1 -8.4 61.4 -22.7 64.4 -22.7 2.9 0 2.7 0.4 -8.4 23.3 -5 10.4 -9 19 -8.8 19.2 0.6 0.6 7.6 -2.1 14.3 -5.5 15.1 -7.6 24.8 -22.5 27 -41.5 2.6 -24 -13.6 -44.7 -39 -49.9 -7.1 -1.5 -9 -1.5 -23.1 -0.1 -8.5 0.9 -16.2 2.1 -17.2 2.5 -1 0.5 -6 2.3 -11 4.1 -21.1 7.2 -38.9 18.1 -86.6 53.2 -11.9 8.8 -24.9 18.1 -28.8 20.5 -3.9 2.5 -9.3 6 -12 7.7 -18.6 11.9 -44.4 24.1 -61.5 28.9 -17.6 5 -19.6 5.3 -42 5.3 -23.4 0 -29.8 -0.9 -45.8 -6.3 -14 -4.7 -34.7 -16.3 -33.3 -18.6 1.1 -1.7 3.9 -1.1 11.4 2.4 9.5 4.3 23.4 8.9 34 10.9 10.6 2.1 42.2 2.4 52.2 0.4 11.5 -2.2 32.1 -9.5 45.7 -16 20.9 -10.1 41.6 -23.3 72 -46.1 43.5 -32.6 63.4 -45.2 85.9 -54.2 21.2 -8.5 45.2 -11.7 62.7 -8.4 34.8 6.7 56.3 37.7 49.2 71.1 -0.8 3.5 -2.1 7.9 -3.1 9.8 l-1.7 3.2 2.2 -2 c3.2 -2.9 10.5 -18.8 12.2 -26.5 4.5 -21.2 -0.7 -39.7 -15 -54.2 -8 -8 -18.2 -13.9 -29.9 -17 -13 -3.5 -36.8 -2.8 -53.2 1.6 -11.8 3.1 -20.9 5.9 -22.7 6.8 -1 0.5 -2.2 0.9 -2.8 0.9 -2 0 -30.4 14.3 -39.2 19.7 -4.7 2.8 -22.1 13.8 -38.6 24.3 -40.2 25.6 -38.3 24.4 -51.6 31 -19.7 9.8 -29.3 13.5 -43.9 16.9 -8.5 2.1 -12 2.3 -27.8 2.2 -19.9 -0.1 -27.8 -1.6 -38.9 -6.9 -9.1 -4.5 -5.6 -6.2 6.2 -2.8 3.2 0.9 11.5 2.1 18.4 2.7 10.9 1 14 0.9 23.9 -0.7 14.2 -2.1 28.3 -6.7 43.8 -14.2 16.5 -7.8 31.5 -16.9 63.9 -38.7 41.5 -27.8 59.6 -38.3 79.6 -46.1 31.8 -12.3 61.7 -15.8 85.4 -10 4.6 1.1 12.9 4.3 18.6 7 8.9 4.4 11.4 6.3 19 13.9 10.1 10.1 14.6 18.2 18.1 31.3 2.4 9.4 2.6 23.7 0.5 33.9 -1.7 7.9 -6.4 19.5 -11.4 27.8 -3.1 5.4 -17.4 20.5 -28.1 29.9 -2.9 2.6 -4.5 4.4 -3.4 4.1 5.7 -2 6 -1.8 2.5 1.9 -1.9 2 -4.2 3.5 -5.3 3.5 -1.7 0 -16.8 11.6 -16 12.3 0.2 0.2 6.1 -1.9 13 -4.5 15.8 -6.2 20.8 -6.9 23.6 -3.9 1.2 1.3 6.5 10.7 12 21.2 8.4 16 10 19.7 10.4 24.7 0.6 5.6 0.5 5.9 -2.7 8.9 -1.9 1.8 -12.5 8.6 -23.8 15.2 -11.2 6.5 -21.3 12.9 -22.2 14.1 -2.2 2.6 -2.1 5.4 0.1 16.6 5.5 26.8 6.7 54.4 3.1 69.5 -1.1 4.7 -2.6 9.8 -3.4 11.2 -3 6 -10.7 15 -16.9 19.8 -6.7 5.5 -6.8 6.5 0 6.6 5.9 0.2 5.6 0.6 -40.3 52 -4.6 5.1 -15.5 17.4 -24.3 27.2 -25.7 28.9 -30.2 33.2 -40.1 37.8 -7.8 3.6 -17.9 4.2 -27.3 1.7z m26.9 -31.3 c2.2 -1.5 21 -21.8 50.4 -54.5 26.7 -29.7 28.5 -32.8 28.6 -47.2 0.1 -5.7 -0.3 -9.4 -1.1 -10.2 -0.8 -0.8 -6 -1 -18.1 -0.7 -15 0.4 -17.4 0.7 -21.5 2.6 -5.9 2.8 -8.7 5.5 -12.8 12 -5.5 8.5 -33.6 65.4 -35.4 71.6 -2.4 8.3 -1 18.2 4 25.7 1.7 2.5 2.6 2.6 5.8 0.6z m59.9 -270.5 c14.6 -6.1 18.3 -25.7 6.6 -36.3 -5.5 -5.1 -10 -6.4 -18 -5.8 -7.6 0.8 -12.6 3.6 -16.5 9.6 -3.1 4.7 -4.1 13.3 -2.2 18.9 1.6 4.9 7.3 11.1 12.2 13.3 4.8 2.2 13 2.3 17.9 0.3z" data-index="10" style="opacity: 1;"></path>
  <path d="M377 543.5 c-40 -9.8 -78.4 -54.2 -87.3 -101 -2.5 -13.2 -2.5 -13.2 5.7 -22.6 11.6 -13.5 23.6 -23.5 47.9 -40.2 7.5 -5.2 11.7 -6.2 10.8 -2.4 -0.3 1.2 -0.9 4.1 -1.5 6.5 -1.5 6.6 -1.2 26.2 0.5 34.9 2.7 14.3 8.6 28.6 16.6 40.8 5.5 8.2 20.2 23.2 27.8 28.2 12.5 8.4 22.3 12.5 35.5 15.2 l7.7 1.5 -11.1 10.4 c-6.2 5.7 -16.1 14.7 -22.3 20.2 l-11.2 9.9 -6.8 -0.1 c-3.8 0 -9.4 -0.7 -12.3 -1.4z" data-index="11" style="opacity: 1;"></path>
  <path d="M874 420.7 c-7.5 -2.9 -15.5 -11.1 -18.5 -18.8 -4.6 -12.2 -1.8 -25.6 9.8 -45 2.9 -4.9 8.6 -14.4 12.6 -21.2 4.5 -7.6 7.9 -12.4 8.9 -12.4 1.1 0 5.8 6.8 13.4 19.3 17.4 28.4 21.5 38.4 20.4 50 -1.1 11.8 -7.6 21.4 -18.5 26.8 -6.3 3.2 -7.6 3.5 -14.8 3.4 -5.6 0 -9.5 -0.6 -13.3 -2.1z" data-index="12" style="opacity: 1; visibility: visible;"></path>
  <path d="M652 355.3 c-2.1 -3.2 -2.8 -7.1 -2.1 -11 0.7 -3.5 -1.4 -2.2 48.9 -30.1 25.2 -13.9 34.7 -19.4 34.7 -20.3 0 -2 -6.2 -15.5 -7.1 -15.5 -2 0 -82.2 44.3 -83.3 46 -0.3 0.5 -2.1 0.9 -3.9 0.9 -2.6 0 -3.3 -0.4 -3.3 -2 0 -1 -1.1 -3.5 -2.4 -5.5 -2.7 -4 -3.2 -8.2 -1 -8.2 0.8 0 15.1 -7.5 31.9 -16.7 16.8 -9.2 38.5 -21 48.1 -26.3 34 -18.6 36.9 -18.8 121 -13.2 54.4 3.6 54.2 3.6 56.4 9.1 1.2 3.1 0.3 28.7 -1.3 35.4 -1.8 7.8 -2.9 8.8 -10.4 8.8 -3.6 0 -16.4 -0.7 -28.5 -1.5 -12.1 -0.8 -32.2 -2.1 -44.7 -2.9 -12.5 -0.8 -26.1 -1.5 -30.1 -1.5 -10.7 0 -23.6 3.5 -34.1 9.2 -3.2 1.8 -9.4 5.1 -13.7 7.4 -4.3 2.3 -8.5 4.8 -9.4 5.5 -0.8 0.8 -1.9 1.4 -2.2 1.4 -0.5 0 -4.8 2.3 -9.7 5.3 -5 2.8 -11.8 6.6 -15.3 8.4 -3.5 1.8 -7.4 3.9 -8.8 4.9 -1.4 1 -5.9 3.5 -10.2 5.8 -4.2 2.2 -9.4 5.2 -11.4 6.5 -4.7 2.9 -6.3 2.9 -8.1 0.2z m222.3 -72.6 c0.4 -4.3 0.5 -8.5 0.2 -9.4 -0.5 -1.9 -13.2 -3.2 -44.8 -4.9 -10.7 -0.5 -24.3 -1.4 -30.3 -1.9 -5.9 -0.6 -13.1 -1 -15.8 -1 l-5.2 0 0 9.7 0 9.7 9.1 0.6 c32.1 2.1 56.3 3.8 65.1 4.5 5.7 0.4 12.7 0.7 15.6 0.6 l5.4 -0.1 0.7 -7.8z m-115.4 2.7 c0.3 -0.3 0.5 -4.5 0.5 -9.4 l0 -9 -4.7 0.2 c-8.7 0.5 -8.9 0.9 -4.8 11 3.3 8.3 3.6 8.7 6 8.1 1.4 -0.3 2.7 -0.8 3 -1z" data-index="13" style="opacity: 1; visibility: visible;"></path>
 </g>
 <g fill="#d7d8d8">
  
  <path d="M642.3 336.4 c-3.4 -6.9 -5.6 -12.5 -5.6 -14.5 0 -3.9 0.8 -4.9 2.4 -3.3 1 0.9 1 1.6 0.1 2.6 -0.9 1.3 -0.9 1.3 0.6 0.1 1 -0.7 1.5 -1.8 1.1 -2.3 -0.4 -0.6 0 -0.8 0.9 -0.5 0.8 0.4 3 -0.3 4.8 -1.4 1.9 -1.2 11.7 -6.6 21.9 -12.3 58.5 -32.1 59.8 -32.7 61.9 -28.7 1.5 2.7 7.9 18.8 7.9 19.7 0 0.7 -8.1 5.4 -38.1 22 -4.6 2.5 -17 9.5 -27.6 15.3 -10.6 6 -19.1 11 -18.8 11.3 1 1 -1.6 3.1 -3.7 3.1 -1.7 0 -3.1 -2.1 -7.7 -11.2z" data-index="15" style="opacity: 1; visibility: hidden; fill: rgb(121, 40, 202);"></path>
  
  <path d="M826.8 291.3 c-4.5 -0.4 -4.7 -0.5 -4.1 -3 0.3 -1.5 0.9 -7.1 1.2 -12.6 l0.7 -10.1 9.3 0 9.3 0 -0.7 9 c-0.3 4.9 -0.6 10.8 -0.6 13.2 l0 4.2 -5.1 -0.2 c-2.8 -0.1 -7.3 -0.3 -10 -0.5z" data-index="17" style="opacity: 1; visibility: hidden; fill: rgb(121, 40, 202);"></path>
  
  <path d="M804.2 289.8 c-5.4 -0.4 -14.1 -1 -19.2 -1.4 l-9.6 -0.6 0 -12.7 0 -12.8 14.5 0.6 c7.9 0.4 17.6 1 21.5 1.3 l7 0.7 -0.1 9.4 c0 11.4 -0.9 16.2 -2.8 16.2 -0.8 0 -5.9 -0.3 -11.2 -0.7z" data-index="19" style="opacity: 1; visibility: hidden; fill: rgb(121, 40, 202);"></path>
 </g>
 <g fill="#c75027">
  <path d="M575.8 536.1 c4.7 -5.3 4.8 -6.5 0.6 -7.1 -2 -0.3 -4.7 -0.9 -6.1 -1.2 -1.4 -0.4 -5.1 -1 -8.3 -1.4 l-5.9 -0.7 4.9 -0.8 c6.2 -1 9.2 -2.5 16.8 -8.6 5.8 -4.6 13.5 -13.7 16.5 -19.5 0.8 -1.5 2.2 -6.4 3.4 -11 3.4 -14.6 2.3 -34.9 -3.6 -66.5 -3.7 -19.5 -4.8 -17.9 22.1 -33.6 11.5 -6.8 22.5 -13.8 24.2 -15.4 2.8 -2.7 3.2 -3.5 2.6 -6.3 -0.8 -3.9 -19.3 -39.6 -22 -42.6 -2.3 -2.4 -1.3 -2.7 -26.4 6.9 -18.5 7.1 -26.4 9.8 -27.1 9.1 -0.2 -0.2 2.8 -2.9 6.6 -6.1 3.8 -3.1 10.8 -9 15.5 -12.8 4.8 -3.9 9.2 -7.1 10 -7.1 0.8 0 3.2 -0.9 5.6 -2 2.2 -1.2 7.5 -2.5 11.7 -3.1 7.1 -1.1 7.8 -1 11.2 1 2 1.2 4.6 2.1 5.8 2.1 1.5 0 1.8 0.3 1 0.8 -1 0.6 -0.6 1.9 1.4 4.9 2.1 3.2 3.1 4 4.7 3.5 1.9 -0.6 1.9 -0.5 -0.1 1 -2.1 1.5 -2.1 1.6 3.9 13.2 4.4 8.8 6.4 11.8 7.8 11.8 1.5 0 1.6 0.3 0.7 1.4 -0.8 1 -0.9 1.6 -0.1 2.1 0.6 0.3 0.8 1 0.6 1.4 -0.8 1.2 2.2 5 4 5 1.3 0 1.3 0.2 0.2 1.7 -0.9 1 -1.4 4 -1.4 8 -0.1 8.7 -2.5 13.2 -10 18.4 -7.1 5 -28.4 17.5 -31.2 18.3 -1.1 0.3 -3 1.8 -4.3 3 l-2.3 2.4 2.6 14 c6.8 35.8 5.9 55.9 -3.6 76.3 -4.9 10.5 -22.7 32.8 -32.9 41.1 -1.7 1.4 -1.5 0.9 0.7 -1.5z" data-index="20" style="opacity: 1;"></path>
 </g>
 <g fill="#b28473">
  
 </g>
</svg>